<svg width="306" height="198" viewBox="0 0 306 198" fill="none" xmlns="http://www.w3.org/2000/svg">
<g clip-path="url(#clip0_11_24)">
<path d="M51.3097 0.681097C51.4461 0.924328 51.5465 1.19617 51.604 1.48233C51.6614 1.76848 51.5896 2.04748 51.3743 2.31217C51.2164 2.52679 50.9581 2.69133 50.5921 2.78433C50.4916 2.81294 50.384 2.79864 50.262 2.74141C50.14 2.68417 50.0395 2.70564 49.9606 2.79864C49.7956 2.98464 49.6377 3.18494 49.4798 3.40671C49.3219 3.62133 49.1784 3.85741 49.0277 4.11494C48.0087 5.87479 46.9466 7.61318 45.8415 9.32294C44.7363 11.0327 43.7245 12.814 42.7988 14.6526C41.4712 17.3782 40.2153 20.1181 39.0313 22.858C37.8472 25.5979 36.7134 28.3736 35.6154 31.1779C33.8214 35.735 32.1493 40.3206 30.5992 44.9491C29.0564 49.5776 27.5565 54.2276 26.1141 58.8991L17.0362 88.5804C16.2899 91.0843 15.5005 93.6024 14.6753 96.142C13.85 98.6816 12.9673 101.193 12.0344 103.675C11.7115 104.576 11.3599 105.485 10.9795 106.401C10.6064 107.316 10.2117 108.203 9.80264 109.055C9.62323 109.455 9.4223 109.82 9.19266 110.149C8.96302 110.478 8.73338 110.815 8.50374 111.158C8.01576 111.852 7.3125 112.274 6.38677 112.41C5.59739 112.517 4.98741 112.231 4.56401 111.566C4.21238 111.058 3.98274 110.464 3.8751 109.784C3.76746 109.105 3.65981 108.425 3.56652 107.738C3.47323 107.059 3.38712 106.386 3.32253 105.735C2.65515 99.8191 2.12411 93.9172 1.72942 88.0153C1.33473 82.1133 1.04768 76.1971 0.875452 70.2594C0.7104 64.8869 0.581229 59.5143 0.487938 54.1561C0.394648 48.7979 0.380295 43.4539 0.444881 38.1243C0.480762 35.7421 0.487938 33.3742 0.480762 31.0206C0.473586 28.6669 0.459233 26.3419 0.444881 24.0456C0.423352 22.9153 0.373119 21.8207 0.287005 20.7691C0.20089 19.7103 0.114776 18.6444 0.035838 17.5642C-0.00721918 17.1493 -0.0143954 16.7343 -0.00721918 16.3266C0.0071332 15.9188 0.0286618 15.4967 0.0501904 15.0603C0.0501904 14.674 0.121952 14.3306 0.2583 14.0516C0.437705 13.651 0.717576 13.4221 1.11227 13.372C1.50696 13.3219 1.82271 13.4579 2.05235 13.7869C2.23175 14.0588 2.39681 14.3306 2.54033 14.6096C2.61209 14.7313 2.65515 14.86 2.6695 15.0031C2.69103 15.139 2.73409 15.2678 2.79867 15.3966C2.89914 15.511 2.94937 15.6541 2.9422 15.8329C2.93502 16.0118 3.01396 16.1334 3.17183 16.1978C3.78899 16.3838 4.24109 16.6986 4.52096 17.1421C4.80083 17.5785 4.94435 18.1007 4.96588 18.6945C4.97306 19.2596 4.93718 19.789 4.85824 20.2898C4.7793 20.7906 4.52813 21.2341 4.09756 21.6347C3.92533 21.7849 3.83922 21.9638 3.83922 22.1569C3.83922 22.3501 3.82487 22.5433 3.80334 22.7221C3.81769 23.0369 3.83204 23.3516 3.8464 23.6664C3.86075 23.9812 3.86792 24.3317 3.86792 24.7252C3.83922 26.6066 3.82487 28.5024 3.81769 30.3982C3.81051 32.2939 3.76028 34.1969 3.66699 36.0998C3.50194 39.0472 3.40865 42.0017 3.38712 44.9706C3.36559 47.9323 3.32971 50.8939 3.26512 53.8485C3.13595 59.8363 3.14313 65.8097 3.28665 71.776C3.43018 77.7423 3.74593 83.6729 4.23391 89.5605C4.45637 92.1216 4.70036 94.6755 4.96588 97.2294C5.22422 99.7833 5.43233 102.344 5.59739 104.927C5.63327 105.592 5.71938 106.25 5.86291 106.901C6.00643 107.552 6.09254 108.232 6.14278 108.926C6.14278 109.069 6.16431 109.205 6.20019 109.334C6.23607 109.463 6.29348 109.556 6.37959 109.606C6.53029 109.634 6.63076 109.62 6.68817 109.548C6.7384 109.484 6.78146 109.427 6.80299 109.384C7.06851 108.926 7.32685 108.447 7.56366 107.96C7.80765 107.474 8.03729 106.987 8.25975 106.501C8.91279 105.084 9.49406 103.639 10.0251 102.151C10.549 100.663 11.0585 99.1824 11.5464 97.7087C12.8453 93.9601 14.0868 90.1972 15.2494 86.4128C16.4191 82.6284 17.5888 78.8297 18.7657 75.0096C20.3373 69.8803 21.9448 64.751 23.5809 59.6145C25.2243 54.4852 26.8963 49.3487 28.6114 44.2194C30.018 40.0559 31.4819 35.9281 33.0104 31.8361C34.539 27.7441 36.1895 23.6879 37.9477 19.6746C39.0671 17.1063 40.2799 14.581 41.586 12.0915C42.8921 9.60194 44.2699 7.16964 45.7267 4.79456C46.0783 4.24371 46.4156 3.70002 46.7528 3.16348C47.0901 2.6341 47.4633 2.13333 47.8723 1.66833C48.0015 1.48948 48.145 1.30348 48.3029 1.10317C48.4608 0.902866 48.6187 0.745482 48.7622 0.63102C49.1138 0.359174 49.4726 0.173174 49.8386 0.0801741C50.4701 -0.0843644 50.9509 0.115943 51.2882 0.702559L51.3097 0.681097ZM35.3642 61.3171C35.0126 61.1955 34.8332 60.9308 34.826 60.5016C34.8045 60.151 34.8045 59.8076 34.8404 59.4643C34.8691 59.1209 34.948 58.7846 35.0772 58.4699C35.2279 58.1122 35.479 57.8475 35.8235 57.6829C36.1393 57.5256 36.4335 57.5756 36.7134 57.8189C36.9932 58.0621 37.1009 58.334 37.0363 58.6344C36.9286 59.407 36.6416 60.194 36.1751 60.988C35.9814 61.3243 35.7087 61.4316 35.3571 61.3099L35.3642 61.3171ZM35.9311 78.701C35.601 78.7868 35.2709 78.8583 34.948 78.9084C34.6251 78.9585 34.3022 78.9728 33.972 78.9585C32.3144 78.8727 31.2666 78.0142 30.8289 76.3974C30.7284 76.0326 30.6782 75.6749 30.671 75.3243C30.6638 74.9738 30.6638 74.6161 30.6782 74.2584C30.6997 73.9365 30.7284 73.6146 30.7715 73.307C30.8145 72.9922 30.8648 72.6917 30.9222 72.3913C31.08 71.5328 31.324 70.703 31.6326 69.8874C31.9484 69.079 32.2211 68.2492 32.4579 67.405C32.4866 67.2548 32.544 67.1189 32.6157 66.9901C32.6875 66.8613 32.7593 66.7397 32.831 66.611C32.953 66.4035 33.1324 66.2676 33.3621 66.2032C33.4267 66.1817 33.4984 66.1817 33.5774 66.196C33.6563 66.2103 33.7281 66.2246 33.7998 66.239C34.0079 66.2175 34.1515 66.3606 34.2304 66.6539C34.2663 66.7898 34.2591 66.9686 34.216 67.1904L34.1371 67.4766C33.9146 68.242 33.6994 68.9574 33.4841 69.6156L33.4267 69.7944C33.0176 70.3953 32.7593 71.0463 32.6445 71.7331C32.5296 72.4199 32.422 73.1138 32.3215 73.8077C32.2785 74.1726 32.2641 74.5446 32.2713 74.9094C32.2785 75.2814 32.3359 75.6463 32.4363 76.0111C32.5727 76.5047 32.8167 76.8839 33.1683 77.1414C33.52 77.399 33.9649 77.4562 34.4959 77.3203C34.661 77.2773 34.8404 77.2344 35.027 77.2058C35.2135 77.17 35.3929 77.1343 35.558 77.0913C35.924 76.9912 36.2971 76.8696 36.6847 76.7122C37.0722 76.5548 37.4238 76.3616 37.7539 76.1327C38.816 75.4603 39.7848 74.7735 40.6674 74.0796C41.6936 73.2712 42.6624 72.4199 43.581 71.5257C44.4923 70.6243 45.4253 69.7658 46.3797 68.9431C46.5519 68.7929 46.717 68.6212 46.882 68.4352C47.0471 68.2492 47.1691 68.0417 47.248 67.8056C47.3843 67.5195 47.5494 67.3549 47.7503 67.2977C47.8149 67.2834 47.8939 67.2763 47.9872 67.2906C48.0804 67.2977 48.1809 67.3263 48.3029 67.3693C48.5254 67.4122 48.6904 67.6196 48.7909 67.9845C48.7981 68.0203 48.8268 68.0703 48.8626 68.149C48.8985 68.2277 48.8985 68.3064 48.8483 68.3923C48.7765 68.657 48.6832 68.843 48.5684 68.9431C48.4608 69.079 48.3747 69.2078 48.3029 69.3366C48.2311 69.4653 48.1163 69.5798 47.9728 69.6943C46.6452 70.8317 45.3535 72.0193 44.112 73.2783C42.8705 74.5303 41.5214 75.632 40.0718 76.5906C39.6771 76.841 39.2681 77.0985 38.8447 77.3703C38.4213 77.6422 37.9835 77.8711 37.5386 78.0643L35.9527 78.701H35.9311ZM63.0428 72.098C62.1817 72.3269 61.3995 72.3269 60.6962 72.0836C59.9929 71.8476 59.4045 71.4398 58.9237 70.8532C58.6007 70.4454 58.3209 70.0305 58.0841 69.6156C57.8472 69.2006 57.6678 68.7643 57.5458 68.2993L57.0363 66.4178C56.7852 66.2747 56.5914 66.146 56.4551 66.0386C56.3187 65.9313 56.2326 65.7954 56.1895 65.6309C56.168 65.5665 56.1608 65.4806 56.1465 65.3733C56.1393 65.2732 56.1321 65.1444 56.125 65.0085C56.1178 64.7295 56.125 64.4076 56.1321 64.0499C56.1465 63.6922 56.1465 63.3202 56.1537 62.9267C56.0532 63.0913 55.9743 63.22 55.9097 63.313C55.8451 63.3989 55.7877 63.4847 55.7374 63.5706C55.2997 64.3217 54.9122 65.0943 54.5677 65.8741C54.2304 66.6539 53.8788 67.4336 53.5128 68.1991C53.2401 68.7643 52.9531 69.3509 52.6517 69.9446C52.3503 70.5384 52.0273 71.1322 51.6901 71.7188C51.4461 72.1409 51.1877 72.52 50.9007 72.8563C50.6208 73.1996 50.3338 73.5645 50.0539 73.958C49.9247 74.1368 49.7597 74.3085 49.5587 74.4873C49.3578 74.6662 49.1353 74.8236 48.8842 74.9595C48.8268 75.0096 48.7478 75.0525 48.6474 75.074C48.5469 75.1026 48.468 75.124 48.3962 75.1383C48.0015 75.2456 47.6355 75.1813 47.3054 74.9523C46.9753 74.7234 46.7528 74.3872 46.638 73.958C46.5663 73.6933 46.5304 73.4143 46.516 73.1138C46.5089 72.8133 46.5232 72.5343 46.5591 72.2768C46.6811 71.2896 46.8677 70.288 47.1117 69.2865C47.3557 68.285 47.6355 67.312 47.9585 66.3749C48.2814 65.4735 48.6761 64.615 49.1353 63.7995C49.5946 62.984 50.0754 62.2113 50.5849 61.4745C50.872 61.081 51.1734 60.6947 51.5035 60.3299C51.8336 59.9579 52.1852 59.6145 52.5584 59.3069C52.7665 59.1495 52.9818 58.9921 53.2042 58.8419C53.4267 58.6916 53.6563 58.57 53.8788 58.477C54.0008 58.4055 54.1084 58.3554 54.2089 58.3125C54.3022 58.2696 54.4027 58.2338 54.5031 58.2052C54.8045 58.1265 55.0916 58.0836 55.3786 58.0764C55.6585 58.0693 55.9527 58.1551 56.2469 58.3268L56.4981 58.4699L56.6129 58.4913L57.1296 58.0335C57.187 57.9834 57.266 57.9405 57.3664 57.919C57.8616 57.7831 58.1773 57.9691 58.3137 58.4627C58.3496 58.5986 58.3711 58.7489 58.3855 58.9206C58.3998 59.0923 58.3926 59.2711 58.3711 59.4571C58.3209 60.0723 58.2993 60.6876 58.3065 61.3099C58.3137 61.9252 58.3137 62.5547 58.3065 63.1986C58.3352 63.9712 58.4213 64.7438 58.5577 65.5236C58.694 66.3033 58.8663 67.0688 59.0672 67.8271C59.2538 68.521 59.5408 69.1363 59.9355 69.6656C60.6388 70.5742 61.5573 70.8818 62.684 70.5813C63.05 70.4812 63.3873 70.3667 63.7102 70.2308C64.0259 70.0949 64.3345 69.8946 64.6216 69.6442C64.844 69.4081 65.0808 69.1863 65.3464 68.9717C65.6119 68.7571 65.8702 68.5282 66.1214 68.285C66.9323 67.4694 67.6714 66.6038 68.3317 65.7024C68.9919 64.801 69.6162 63.8424 70.1975 62.8409C70.2979 62.6763 70.3769 62.519 70.4486 62.3759C70.5204 62.2328 70.4845 62.054 70.3553 61.8393C70.3195 61.8465 70.2979 61.8179 70.2764 61.7535C70.2477 61.6533 70.2908 61.5675 70.3912 61.4816C70.4917 61.403 70.5706 61.3171 70.6209 61.2313C70.6711 61.1454 70.7787 61.081 70.9438 61.0381C71.1734 60.9737 71.4031 61.0023 71.6327 61.1168C71.8623 61.2313 72.0059 61.4101 72.0633 61.639C72.1422 61.9395 72.1279 62.2256 72.0274 62.4975C71.9628 62.6549 71.8982 62.8051 71.8265 62.9482C71.7619 63.0913 71.6901 63.2272 71.6184 63.3488C71.0084 64.3933 70.3625 65.3662 69.6808 66.2604C68.999 67.1546 68.2599 68.056 67.4777 68.9717C67.0184 69.5154 66.5233 70.0448 65.9779 70.5384C65.4397 71.0392 64.8297 71.4112 64.1479 71.6616C63.9542 71.7474 63.7748 71.8261 63.5954 71.8905C63.416 71.9549 63.2294 72.0121 63.0285 72.0693L63.0428 72.098ZM48.2096 73.6146C48.3101 73.586 48.4177 73.5216 48.5325 73.4214C48.7407 73.2569 48.9201 73.078 49.0779 72.8777C49.2358 72.6774 49.4009 72.4843 49.5587 72.2983C49.9319 71.8476 50.2477 71.3897 50.4988 70.9319C50.75 70.474 51.0012 69.9804 51.2451 69.4582C51.9771 67.9559 52.8167 66.4679 53.7568 65.0156C54.6969 63.5563 55.3356 62.0039 55.6729 60.3585C55.6872 60.287 55.7016 60.2083 55.7159 60.1367C55.7303 60.058 55.7087 59.9793 55.6513 59.8863C55.5293 59.7075 55.3571 59.6431 55.1203 59.7075C54.9552 59.7504 54.7758 59.8219 54.5964 59.9293C54.4098 60.0294 54.2448 60.1367 54.0941 60.2512C53.8788 60.38 53.6707 60.5302 53.4698 60.709C53.2688 60.8879 53.0607 61.0953 52.8383 61.3314C52.5369 61.6605 52.2498 62.011 51.9771 62.383C51.7044 62.755 51.4461 63.1556 51.2021 63.5706C50.5706 64.658 50.0037 65.7668 49.5085 66.89C49.0133 68.0131 48.6258 69.2006 48.3603 70.4383C48.2814 70.8103 48.2168 71.1966 48.1594 71.5829C48.102 71.9692 48.0589 72.3626 48.023 72.7633C48.0087 72.9779 48.023 73.1567 48.0589 73.2855C48.0948 73.4214 48.145 73.5287 48.2024 73.6217L48.2096 73.6146ZM68.2168 76.4547C67.9872 76.519 67.7863 76.4475 67.6284 76.24C67.4633 76.0326 67.2624 75.8609 67.0041 75.7178C66.961 75.6963 66.9395 75.6677 66.9251 75.632C66.8534 75.3673 66.839 75.124 66.8892 74.8951C66.9754 74.5517 67.0184 74.194 67.0256 73.822C67.0328 73.45 67.0758 73.0709 67.1476 72.6989C67.3413 71.8333 67.5351 70.9676 67.7289 70.102C67.9226 69.2364 68.1523 68.378 68.4249 67.5266C69.2072 65.0156 70.0539 62.5404 70.9581 60.101C71.8695 57.6615 72.7522 55.2077 73.6205 52.7468C73.764 52.3533 73.9076 51.967 74.0583 51.595C74.209 51.2159 74.3884 50.8439 74.6108 50.4647C74.7113 50.3002 74.8261 50.1428 74.9625 49.9997C75.0988 49.8566 75.228 49.7207 75.3284 49.5848C75.4648 49.4417 75.6011 49.3487 75.7375 49.313C76.003 49.2414 76.2542 49.2843 76.491 49.4346C76.7278 49.5848 76.8785 49.7923 76.9503 50.0569C77.022 50.3216 77.0436 50.5935 77.0077 50.8653C76.9718 51.1372 76.9072 51.4162 76.7996 51.688C76.4838 52.6252 76.1824 53.5695 75.9097 54.5281C75.637 55.4867 75.3213 56.4382 74.9696 57.3825C74.8261 57.776 74.6611 58.1909 74.4817 58.6273C74.2951 59.0636 74.1372 59.5 74.0009 59.9221L73.8932 60.3227C73.7712 60.6733 73.5344 60.895 73.1684 60.9952C73.0679 61.0238 72.9101 61.031 72.6948 61.0166C71.9198 63.0269 71.195 65.0586 70.5204 67.0974C69.8458 69.1363 69.2143 71.1894 68.6331 73.2569C68.6044 73.4071 68.5613 73.5573 68.5182 73.7147C68.468 73.8721 68.4895 74.0438 68.5756 74.2298C68.7263 74.1225 68.8555 73.9866 68.9775 73.8292C69.0923 73.6718 69.2072 73.5287 69.3148 73.3928C70.0468 72.4199 70.7213 71.4255 71.3385 70.4096C71.9556 69.3938 72.5943 68.3923 73.2474 67.405C74.1444 66.103 74.9768 64.7796 75.7518 63.4418C76.5269 62.104 77.345 60.7877 78.2061 59.4929C78.5577 58.942 78.9524 58.3912 79.3902 57.8475C79.8279 57.3038 80.2083 56.7601 80.524 56.2164C80.6675 55.966 80.8469 55.7299 81.055 55.5153C81.2632 55.3007 81.4641 55.0789 81.6507 54.85C81.7583 54.7141 81.8875 54.6211 82.0525 54.5567C82.2176 54.4923 82.3324 54.3993 82.4042 54.2777C82.4257 54.2348 82.5046 54.199 82.641 54.1633C83.2725 53.9916 83.6672 54.2276 83.8394 54.85C83.8825 55.0146 83.9112 55.1934 83.9327 55.3866C83.9471 55.5797 83.9471 55.7657 83.9255 55.9446C83.9255 56.4739 83.8968 57.0033 83.8466 57.5327C83.7963 58.0621 83.7676 58.5915 83.7676 59.1209C83.7892 59.7218 83.8035 60.3227 83.8322 60.938C83.8538 61.5532 83.8753 62.1541 83.8968 62.755C83.9112 63.2129 83.9829 63.6707 84.1049 64.1357C84.3776 65.1587 84.7795 65.8956 85.3105 66.3391C85.8416 66.7826 86.5664 66.8828 87.4921 66.6324C88.2241 66.4393 88.8986 66.0601 89.5301 65.5021C89.9535 65.1015 90.3482 64.6866 90.7142 64.2573C91.0802 63.821 91.4246 63.3703 91.7619 62.891C92.6231 61.5961 93.4555 60.3013 94.2592 59.0064C95.063 57.7116 95.8595 56.3953 96.6346 55.0503C96.7063 54.9216 96.7637 54.8 96.8068 54.6855C96.8427 54.571 96.9144 54.478 97.0005 54.4208C97.1369 54.2777 97.2589 54.1919 97.3594 54.1633C97.589 54.0989 97.7684 54.106 97.8976 54.1776C98.2779 54.3922 98.4143 54.6569 98.321 54.9645C98.2564 55.1219 98.199 55.3007 98.1416 55.4939C98.0841 55.687 98.0124 55.8659 97.9119 56.0304C97.2087 57.2466 96.4839 58.4556 95.7447 59.6646C95.0056 60.8736 94.2234 62.0611 93.3981 63.2415C93.1397 63.592 92.8742 63.9426 92.6087 64.2788C92.3432 64.615 92.0633 64.9656 91.7691 65.3233C91.2452 66.0315 90.5994 66.6467 89.8172 67.1761C89.523 67.3979 89.2072 67.5982 88.8843 67.7699C88.5613 67.9487 88.2097 68.0846 87.8509 68.1777C87.7217 68.2134 87.5926 68.2492 87.4777 68.2778C87.3629 68.3064 87.2481 68.3207 87.1405 68.3136C86.1501 68.3279 85.3105 68.149 84.6216 67.7627C83.9327 67.3836 83.416 66.7397 83.0644 65.8383C82.9711 65.6166 82.8922 65.402 82.8419 65.2088C82.7917 65.0085 82.7343 64.8153 82.684 64.615C82.5046 63.9569 82.3898 63.313 82.3252 62.6906C82.2463 61.8608 82.2176 61.0309 82.2391 60.1868C82.2606 59.3498 82.2894 58.5343 82.3324 57.7473L82.3539 56.6242L82.1674 56.5169L81.3493 57.64C80.2585 59.1352 79.2323 60.6661 78.2707 62.2328C77.3091 63.7995 76.3259 65.3733 75.3284 66.9472C74.5462 68.149 73.7784 69.3437 73.0177 70.5384C72.257 71.7331 71.4605 72.8992 70.628 74.0438C70.4486 74.3013 70.2549 74.566 70.0396 74.8379C69.8243 75.1097 69.609 75.3601 69.3866 75.5962C69.1426 75.8752 68.8842 76.1041 68.6115 76.283C68.5182 76.3402 68.3962 76.3974 68.224 76.4403L68.2168 76.4547Z" fill="#2B2B29"/>
<path d="M165.045 197.169C164.615 197.283 164.17 197.383 163.718 197.469C163.258 197.555 162.813 197.641 162.376 197.72C160.955 197.991 159.498 198.063 158.005 197.927C155.888 197.712 154.245 197.018 153.075 195.845C151.906 194.672 151.116 193.32 150.707 191.803C150.42 190.745 150.284 189.679 150.298 188.591C150.305 187.511 150.406 186.445 150.585 185.408C150.8 184.22 151.109 183.054 151.511 181.917C151.913 180.779 152.365 179.685 152.867 178.633C153.793 176.651 154.877 174.77 156.118 172.982C157.36 171.2 158.709 169.512 160.165 167.917C161.12 166.844 162.081 165.849 163.036 164.919C163.51 164.44 163.811 163.846 163.94 163.138C164.414 160.283 164.938 157.443 165.512 154.618C166.086 151.792 166.66 148.952 167.248 146.105C168.102 142.013 169.035 137.949 170.047 133.907C171.059 129.865 172.071 125.831 173.083 121.803C173.829 118.77 174.618 115.751 175.444 112.753C176.269 109.749 177.137 106.751 178.034 103.747C178.414 102.509 178.816 101.307 179.247 100.127C179.677 98.9464 180.101 97.7588 180.524 96.5427L180.689 95.9703L179.52 96.7644C177.288 98.2453 175.192 99.905 173.233 101.736C171.274 103.568 169.387 105.471 167.571 107.445C164.22 111.101 161.141 114.964 158.343 119.02C155.544 123.076 152.996 127.326 150.707 131.768C149.645 133.893 148.669 136.061 147.786 138.257C146.904 140.46 146.157 142.735 145.548 145.096L145.146 146.584C145.253 146.734 145.354 146.87 145.447 147.006C145.54 147.142 145.605 147.292 145.648 147.457C145.713 147.686 145.67 147.864 145.526 147.993C145.382 148.122 145.239 148.236 145.088 148.351C144.995 148.408 144.938 148.487 144.909 148.587C144.88 148.68 144.844 148.773 144.794 148.859L144.442 149.538C144.342 149.703 144.134 149.782 143.811 149.76C143.517 149.732 143.337 149.588 143.265 149.324C143.194 149.059 143.194 148.737 143.273 148.365C143.337 147.957 143.416 147.535 143.495 147.113C143.574 146.684 143.667 146.276 143.782 145.897C144.622 142.807 145.605 139.795 146.739 136.869C147.873 133.943 149.2 131.096 150.729 128.313C155.063 120.251 160.366 112.811 166.638 106C168.892 103.553 171.26 101.243 173.728 99.0608C176.197 96.8789 178.852 94.9116 181.687 93.166C183.294 92.1359 184.945 91.1773 186.646 90.2973C188.346 89.4174 190.097 88.6877 191.891 88.1011C192.415 87.9294 192.925 87.7649 193.434 87.6075C193.944 87.4573 194.446 87.307 194.941 87.1783C197.496 86.4987 200.044 86.098 202.591 85.9836C205.139 85.8691 207.722 86.0837 210.356 86.6203C213.327 87.2427 216.104 88.3658 218.666 89.9826C220.467 91.1272 222.024 92.4864 223.33 94.046C224.636 95.6127 225.756 97.3296 226.689 99.2039C227.091 100.055 227.457 100.899 227.772 101.758C228.088 102.609 228.368 103.468 228.598 104.326C228.928 105.549 229.179 106.801 229.365 108.082C229.552 109.362 229.681 110.664 229.753 111.988C229.882 114.856 229.753 117.682 229.365 120.458C228.978 123.234 228.418 125.981 227.686 128.692C226.818 131.933 225.734 135.123 224.443 138.242C223.151 141.369 221.701 144.423 220.079 147.407C215.372 156.206 209.71 164.132 203.093 171.179C196.477 178.225 188.949 184.435 180.517 189.8C178.845 190.852 177.151 191.853 175.436 192.805C173.721 193.756 171.956 194.622 170.133 195.387C169.308 195.752 168.461 196.081 167.6 196.382C166.739 196.682 165.878 196.947 165.017 197.176L165.045 197.169ZM164.794 195.43C165.655 195.201 166.502 194.937 167.327 194.651C168.153 194.357 168.963 194.035 169.76 193.685C171.669 192.855 173.527 191.946 175.336 190.945C177.144 189.95 178.91 188.885 180.632 187.747C188.763 182.425 196.018 176.308 202.404 169.39C208.791 162.48 214.26 154.746 218.824 146.198C220.366 143.343 221.744 140.432 222.95 137.47C224.163 134.508 225.182 131.461 226.014 128.334C226.624 125.974 227.105 123.613 227.471 121.252C227.83 118.891 228.016 116.48 228.038 114.034C228.045 112.474 227.959 110.922 227.772 109.377C227.586 107.831 227.299 106.315 226.897 104.827C226.696 104.069 226.459 103.296 226.194 102.516C225.928 101.736 225.612 100.971 225.232 100.22C223.962 97.6157 222.354 95.3909 220.395 93.538C218.443 91.6852 216.068 90.2687 213.276 89.2743C212.681 89.0454 212.085 88.8451 211.49 88.6877C210.894 88.5303 210.284 88.3873 209.645 88.28C207.241 87.7864 204.837 87.6075 202.433 87.7363C200.036 87.865 197.639 88.2442 195.25 88.8809C193.793 89.2672 192.394 89.8323 191.066 90.5549C189.731 91.2846 188.411 92.0143 187.098 92.7583C185.784 93.4951 184.399 94.0603 182.943 94.4537C182.878 94.468 182.806 94.511 182.735 94.561C182.663 94.6183 182.584 94.6898 182.505 94.7828C182.871 95.0761 183.101 95.4195 183.208 95.8201C183.294 96.1492 183.309 96.5355 183.251 96.979L183.172 98.0664L182.713 101.321C182.663 101.794 182.691 102.23 182.799 102.631C183.158 103.954 182.749 105.142 181.572 106.2C181.515 106.25 181.421 106.293 181.285 106.329C180.854 106.444 180.575 106.272 180.453 105.807C180.388 105.578 180.366 105.421 180.381 105.349L180.704 103.189C180.646 103.239 180.589 103.26 180.539 103.26C180.481 103.26 180.431 103.296 180.388 103.382C180.266 103.589 180.158 103.854 180.065 104.162C179.498 106.157 178.867 108.139 178.17 110.114C177.474 112.088 176.85 114.091 176.29 116.116C174.611 122.161 173.004 128.234 171.461 134.329C169.918 140.424 168.562 146.57 167.385 152.765L165.734 161.492C165.72 161.564 165.691 161.671 165.655 161.807C165.619 161.943 165.705 162.05 165.906 162.136L166.768 161.378C167.686 160.562 168.597 159.783 169.494 159.032C170.391 158.28 171.296 157.529 172.2 156.792C173.549 155.726 174.934 154.718 176.369 153.766C177.805 152.815 179.283 151.956 180.826 151.198C181.737 150.74 182.67 150.39 183.632 150.132C183.962 150.046 184.292 149.975 184.615 149.925C184.938 149.875 185.275 149.839 185.627 149.817C186.229 149.796 186.803 149.875 187.363 150.046C187.923 150.218 188.483 150.476 189.035 150.819C189.121 150.869 189.193 150.948 189.258 151.055C189.322 151.162 189.416 151.248 189.545 151.327C189.588 151.348 189.624 151.413 189.645 151.513C189.688 151.677 189.631 151.871 189.48 152.085C189.294 152.314 189.078 152.386 188.849 152.307C188.698 152.278 188.554 152.228 188.411 152.157C188.267 152.085 188.117 152.021 187.959 151.956C187.227 151.62 186.516 151.477 185.813 151.52C185.533 151.527 185.232 151.549 184.93 151.599C184.622 151.642 184.32 151.706 184.019 151.785C183.89 151.82 183.739 151.863 183.574 151.906C183.409 151.949 183.244 152.014 183.093 152.092C182.333 152.436 181.586 152.786 180.847 153.144C180.108 153.502 179.39 153.917 178.702 154.382C176.305 155.905 174.015 157.572 171.834 159.375C169.652 161.178 167.535 163.081 165.483 165.084C165.139 165.391 164.93 165.813 164.866 166.364L164.17 170.32C163.775 172.695 163.416 175.092 163.093 177.517C162.77 179.942 162.498 182.353 162.29 184.742C162.247 185.25 162.239 185.765 162.254 186.295C162.268 186.824 162.261 187.354 162.232 187.897C162.247 188.069 162.247 188.248 162.239 188.427C162.232 188.606 162.254 188.777 162.297 188.942C162.383 189.271 162.569 189.557 162.849 189.8C162.856 189.836 162.871 189.857 162.892 189.872C162.914 189.886 162.928 189.908 162.935 189.936C162.943 189.972 162.943 190.029 162.935 190.122C162.921 190.215 162.914 190.294 162.9 190.372C162.9 190.516 162.785 190.616 162.555 190.68C162.06 190.816 161.658 190.652 161.364 190.201C161.17 189.865 161.019 189.514 160.919 189.149C160.797 188.684 160.732 188.133 160.74 187.497C160.761 186.252 160.826 185.029 160.926 183.834C161.034 182.639 161.149 181.437 161.292 180.228C161.529 178.325 161.837 176.408 162.225 174.477C162.612 172.545 162.871 170.628 162.993 168.718C163.014 168.532 163.043 168.367 163.072 168.217C163.1 168.067 163.065 167.917 162.95 167.774L162.691 168.002C161.084 169.426 159.677 171.021 158.465 172.796C157.252 174.57 156.125 176.415 155.078 178.325C154.015 180.307 153.205 182.389 152.645 184.556C152.458 185.315 152.315 186.08 152.221 186.846C152.128 187.618 152.099 188.398 152.135 189.206C152.157 189.557 152.185 189.9 152.229 190.244C152.264 190.587 152.336 190.938 152.437 191.303C153.111 193.814 154.647 195.373 157.051 195.967C157.926 196.196 158.816 196.282 159.706 196.239C160.603 196.196 161.479 196.11 162.333 195.988C162.77 195.91 163.194 195.824 163.596 195.731C163.998 195.638 164.399 195.545 164.794 195.437V195.43ZM180.711 103.139L180.718 102.974C180.704 102.91 180.661 102.881 180.589 102.902L180.553 102.967L180.704 103.139H180.711ZM239.706 134.83C239.355 134.708 239.175 134.444 239.168 134.015C239.147 133.664 239.154 133.321 239.182 132.977C239.211 132.634 239.297 132.298 239.419 131.983C239.57 131.625 239.821 131.36 240.166 131.196C240.481 131.039 240.776 131.089 241.055 131.332C241.335 131.575 241.443 131.847 241.378 132.147C241.264 132.92 240.984 133.707 240.517 134.501C240.323 134.837 240.051 134.945 239.699 134.823L239.706 134.83ZM240.273 152.214C239.943 152.3 239.613 152.371 239.29 152.421C238.967 152.471 238.644 152.486 238.314 152.471C236.656 152.386 235.609 151.527 235.171 149.91C235.071 149.546 235.02 149.188 235.013 148.837C235.006 148.487 235.006 148.129 235.02 147.771C235.042 147.449 235.071 147.128 235.114 146.82C235.157 146.505 235.207 146.205 235.264 145.904C235.422 145.046 235.659 144.216 235.975 143.4C236.29 142.592 236.563 141.762 236.8 140.918C236.829 140.768 236.886 140.632 236.958 140.503C237.03 140.374 237.101 140.253 237.173 140.124C237.295 139.916 237.475 139.781 237.704 139.716C237.769 139.702 237.841 139.695 237.919 139.709C237.991 139.723 238.07 139.738 238.142 139.752C238.35 139.73 238.494 139.874 238.573 140.167C238.608 140.303 238.601 140.474 238.558 140.703L238.479 140.99C238.257 141.755 238.041 142.47 237.826 143.129L237.769 143.307C237.36 143.915 237.101 144.559 236.987 145.246C236.872 145.933 236.764 146.627 236.664 147.321C236.621 147.686 236.606 148.058 236.613 148.422C236.621 148.794 236.678 149.159 236.778 149.524C236.915 150.018 237.159 150.397 237.51 150.654C237.862 150.912 238.307 150.976 238.838 150.833C239.003 150.79 239.182 150.747 239.369 150.719C239.556 150.69 239.735 150.647 239.9 150.604C240.266 150.504 240.639 150.383 241.027 150.225C241.414 150.068 241.766 149.875 242.096 149.646C243.158 148.973 244.127 148.286 245.01 147.593C246.036 146.784 247.005 145.933 247.923 145.039C248.834 144.137 249.767 143.279 250.722 142.456C250.894 142.306 251.059 142.134 251.224 141.948C251.389 141.762 251.511 141.555 251.59 141.319C251.726 141.032 251.892 140.868 252.092 140.811C252.157 140.796 252.236 140.789 252.329 140.804C252.423 140.811 252.523 140.839 252.645 140.882C252.867 140.925 253.033 141.133 253.133 141.497C253.14 141.533 253.169 141.583 253.205 141.662C253.241 141.741 253.241 141.819 253.19 141.905C253.119 142.17 253.025 142.356 252.911 142.456C252.803 142.592 252.717 142.721 252.645 142.85C252.573 142.978 252.458 143.093 252.315 143.2C250.987 144.338 249.696 145.525 248.454 146.784C247.213 148.036 245.864 149.138 244.414 150.096C244.019 150.347 243.61 150.604 243.187 150.876C242.763 151.148 242.326 151.377 241.881 151.57L240.295 152.207L240.273 152.214ZM247.213 161.571C246.911 161.65 246.717 161.528 246.631 161.192L246.603 161.092C246.574 160.992 246.567 160.877 246.567 160.756C246.567 160.634 246.581 160.534 246.595 160.455C246.595 159.926 246.682 159.389 246.854 158.846C247.78 155.555 248.677 152.285 249.552 149.038C250.42 145.797 251.31 142.563 252.222 139.344C254.331 131.983 256.52 124.664 258.795 117.396C261.07 110.128 263.438 102.888 265.907 95.677C267.615 90.655 269.258 85.6187 270.851 80.5681C272.444 75.5175 274.138 70.5098 275.925 65.5307C276.491 63.9283 277.044 62.3616 277.597 60.8378C278.142 59.3069 278.673 57.7688 279.183 56.2164C279.448 55.3651 279.793 54.5281 280.216 53.7126C280.632 52.8899 280.998 52.0529 281.3 51.1944C281.357 51.0013 281.436 50.8224 281.551 50.6507C281.666 50.479 281.773 50.3073 281.866 50.1428C281.988 49.9353 282.175 49.7637 282.419 49.6206C282.512 49.5633 282.656 49.5061 282.85 49.4489C283.417 49.2987 283.783 49.5347 283.948 50.1643C283.998 50.3646 284.005 50.5649 283.955 50.7723C283.904 50.9798 283.854 51.1944 283.811 51.4233C283.696 52.0529 283.524 52.6681 283.295 53.2619C282.527 55.3079 281.773 57.3539 281.027 59.3927C280.281 61.4316 279.348 63.4203 278.228 65.3447C278.128 65.5093 278.027 65.6881 277.92 65.8813C277.812 66.0673 277.668 66.2247 277.482 66.3391C277.36 66.4107 277.267 66.5251 277.202 66.6825C277.137 66.8399 277.08 67.0187 277.023 67.2047L275.365 71.9477C273.119 78.3933 270.923 84.8747 268.784 91.399C266.646 97.9234 264.493 104.426 262.333 110.922C260.08 117.618 257.97 124.343 256.003 131.103C254.037 137.863 252.085 144.638 250.141 151.427L249.81 152.579L249.99 152.636C250.047 152.586 250.112 152.5 250.184 152.371C253.025 147.471 256.212 142.864 259.742 138.557C261.106 136.883 262.469 135.252 263.84 133.664C265.211 132.076 266.631 130.538 268.117 129.043C268.368 128.799 268.648 128.57 268.949 128.37C269.251 128.163 269.516 127.905 269.753 127.598C269.861 127.462 269.983 127.354 270.112 127.261C270.248 127.175 270.392 127.075 270.535 126.961C270.593 126.911 270.672 126.868 270.772 126.846C270.973 126.796 271.239 126.861 271.576 127.054C271.662 127.104 271.726 127.175 271.77 127.268C271.813 127.361 271.841 127.447 271.863 127.512C271.899 127.64 271.899 127.784 271.87 127.934C271.841 128.084 271.784 128.249 271.712 128.427C271.633 128.606 271.576 128.742 271.526 128.821C271.109 129.536 270.686 130.194 270.248 130.81C269.287 132.126 268.296 133.435 267.277 134.737C266.258 136.039 265.246 137.334 264.249 138.629C262.986 140.274 261.687 141.891 260.352 143.465C259.017 145.046 257.704 146.663 256.405 148.315L256.09 148.716C256.298 148.694 256.448 148.673 256.549 148.644C256.649 148.616 256.771 148.601 256.908 148.601C257.324 148.558 257.726 148.48 258.12 148.358C258.515 148.236 258.917 148.151 259.333 148.115C260.431 147.965 261.529 147.786 262.627 147.578C263.725 147.371 264.83 147.213 265.935 147.092C266.725 146.984 267.528 146.906 268.347 146.849C269.165 146.791 269.99 146.705 270.808 146.591C271.597 146.484 272.372 146.477 273.14 146.555C273.908 146.634 274.683 146.62 275.472 146.519C275.681 146.498 275.889 146.512 276.097 146.562C276.305 146.612 276.506 146.663 276.7 146.72C277.116 146.82 277.381 147.07 277.489 147.464L277.518 147.564C277.589 147.829 277.511 148.079 277.295 148.315C277.216 148.408 277.109 148.472 276.972 148.508C276.908 148.523 276.836 148.515 276.75 148.487C276.671 148.458 276.578 148.437 276.47 148.43C275.609 148.272 274.805 148.186 274.052 148.172C271.676 148.201 269.373 148.358 267.141 148.637C265.562 148.844 263.998 149.073 262.44 149.309C260.89 149.546 259.34 149.839 257.798 150.175C257.259 150.282 256.743 150.404 256.24 150.54C255.745 150.676 255.228 150.812 254.697 150.955C254.561 150.991 254.418 151.012 254.26 151.019C254.102 151.026 253.958 151.048 253.822 151.084C253.686 151.119 253.556 151.127 253.427 151.112C253.298 151.091 253.147 151.091 252.968 151.098C252.803 151.284 252.652 151.499 252.501 151.756C252.358 152.006 252.222 152.235 252.1 152.45L249.43 157.2C249.33 157.365 249.236 157.529 249.129 157.679C249.028 157.83 248.899 157.958 248.756 158.073C248.404 158.345 248.189 158.688 248.124 159.089C248.088 159.346 248.045 159.597 248.002 159.84C247.959 160.083 247.902 160.334 247.837 160.605C247.808 160.756 247.765 160.899 247.715 161.035C247.665 161.171 247.579 161.292 247.464 161.392C247.349 161.492 247.256 161.55 247.191 161.571H247.213ZM256.599 144.931C256.599 144.931 256.843 144.645 257.331 144.073C257.819 143.501 258.436 142.771 259.19 141.877C259.943 140.982 260.74 140.038 261.572 139.037C262.405 138.035 263.194 137.076 263.948 136.168C264.701 135.259 265.311 134.501 265.792 133.893C266.265 133.285 266.502 132.949 266.481 132.884C266.459 132.82 266.287 132.956 265.95 133.292C265.304 133.922 264.565 134.723 263.739 135.689C262.914 136.654 262.082 137.663 261.249 138.715C260.417 139.773 259.642 140.775 258.939 141.726C258.235 142.678 257.668 143.45 257.245 144.037C256.814 144.631 256.606 144.924 256.606 144.924L256.599 144.931ZM296.929 137.72C296.068 137.949 295.286 137.949 294.583 137.713C293.879 137.477 293.291 137.069 292.81 136.483C292.487 136.075 292.207 135.66 291.971 135.245C291.734 134.83 291.554 134.394 291.432 133.929L290.923 132.047C290.672 131.904 290.478 131.775 290.342 131.668C290.205 131.561 290.119 131.425 290.076 131.26C290.054 131.196 290.047 131.11 290.033 131.003C290.026 130.903 290.019 130.774 290.011 130.638C290.004 130.359 290.011 130.037 290.019 129.679C290.033 129.322 290.033 128.95 290.04 128.556C289.94 128.721 289.861 128.849 289.796 128.942C289.732 129.028 289.674 129.114 289.624 129.2C289.186 129.951 288.799 130.724 288.454 131.504C288.117 132.283 287.765 133.063 287.399 133.829C287.127 134.401 286.84 134.98 286.538 135.574C286.237 136.168 285.914 136.762 285.577 137.348C285.333 137.77 285.074 138.149 284.787 138.486C284.507 138.829 284.22 139.194 283.94 139.587C283.811 139.766 283.646 139.938 283.445 140.117C283.244 140.296 283.022 140.453 282.771 140.589C282.713 140.639 282.634 140.682 282.534 140.703C282.433 140.732 282.354 140.753 282.283 140.768C281.888 140.875 281.522 140.811 281.192 140.582C280.862 140.353 280.639 140.017 280.525 139.587C280.453 139.323 280.417 139.044 280.403 138.743C280.395 138.443 280.41 138.164 280.446 137.906C280.568 136.919 280.754 135.917 280.998 134.916C281.242 133.914 281.522 132.941 281.845 132.004C282.168 131.103 282.563 130.244 283.022 129.429C283.481 128.613 283.962 127.841 284.471 127.104C284.758 126.71 285.06 126.324 285.39 125.959C285.72 125.587 286.072 125.244 286.445 124.936C286.653 124.772 286.868 124.622 287.091 124.471C287.313 124.321 287.543 124.199 287.765 124.106C287.887 124.035 287.995 123.985 288.095 123.942C288.189 123.899 288.289 123.863 288.39 123.835C288.691 123.756 288.978 123.713 289.265 123.706C289.545 123.699 289.839 123.785 290.133 123.956L290.385 124.099L290.499 124.121L291.016 123.663C291.074 123.613 291.152 123.577 291.253 123.548C291.748 123.413 292.064 123.599 292.2 124.092C292.236 124.221 292.258 124.378 292.272 124.55C292.286 124.722 292.279 124.901 292.258 125.087C292.207 125.702 292.186 126.317 292.193 126.939C292.2 127.555 292.2 128.184 292.193 128.828C292.222 129.601 292.308 130.373 292.444 131.153C292.581 131.933 292.753 132.698 292.954 133.457C293.14 134.15 293.427 134.766 293.822 135.295C294.525 136.204 295.444 136.511 296.57 136.211C296.936 136.111 297.274 135.996 297.597 135.86C297.912 135.724 298.221 135.524 298.508 135.274C298.731 135.038 298.967 134.816 299.233 134.601C299.498 134.387 299.757 134.158 300.008 133.914C300.819 133.099 301.558 132.233 302.218 131.332C302.878 130.43 303.503 129.472 304.084 128.47C304.184 128.306 304.263 128.148 304.335 128.005C304.407 127.862 304.371 127.683 304.242 127.469C304.206 127.476 304.184 127.447 304.163 127.383C304.134 127.283 304.177 127.197 304.278 127.111C304.378 127.032 304.457 126.947 304.507 126.868C304.558 126.782 304.665 126.718 304.83 126.675C305.06 126.61 305.29 126.639 305.519 126.753C305.749 126.868 305.892 127.047 305.95 127.276C306.029 127.576 306.014 127.862 305.914 128.134C305.849 128.291 305.785 128.442 305.713 128.585C305.648 128.728 305.577 128.864 305.505 128.985C304.895 130.03 304.249 131.003 303.567 131.897C302.886 132.791 302.146 133.693 301.364 134.608C300.905 135.152 300.41 135.681 299.864 136.175C299.326 136.676 298.716 137.048 298.034 137.298C297.841 137.384 297.661 137.463 297.482 137.527C297.302 137.591 297.116 137.649 296.915 137.706L296.929 137.72ZM282.096 139.237C282.197 139.208 282.304 139.144 282.419 139.044C282.627 138.879 282.807 138.7 282.964 138.5C283.122 138.3 283.287 138.107 283.445 137.921C283.818 137.463 284.134 137.012 284.385 136.554C284.636 136.096 284.888 135.603 285.132 135.08C285.864 133.578 286.703 132.09 287.643 130.638C288.583 129.186 289.222 127.626 289.559 125.981C289.574 125.902 289.588 125.831 289.602 125.759C289.617 125.687 289.595 125.602 289.538 125.509C289.416 125.33 289.244 125.265 289.007 125.33C288.842 125.373 288.662 125.451 288.483 125.552C288.296 125.652 288.131 125.759 287.981 125.873C287.765 126.002 287.557 126.152 287.356 126.331C287.155 126.51 286.947 126.718 286.725 126.954C286.423 127.283 286.136 127.633 285.864 128.005C285.591 128.377 285.333 128.778 285.089 129.193C284.457 130.28 283.89 131.389 283.395 132.512C282.9 133.635 282.512 134.823 282.247 136.061C282.168 136.433 282.103 136.819 282.046 137.205C281.988 137.591 281.945 137.985 281.91 138.386C281.895 138.6 281.91 138.772 281.945 138.908C281.981 139.044 282.032 139.151 282.089 139.244L282.096 139.237Z" fill="#2B2B29"/>
<path d="M146.71 90.4189C146.43 90.5191 146.15 90.5334 145.87 90.4619C144.536 90.0326 143.244 89.4746 142.002 88.8022C141.902 88.7306 141.766 88.6877 141.579 88.6662C141.392 88.6448 141.127 88.8379 140.782 89.2529C140.244 89.911 139.641 90.5477 138.981 91.1629C138.321 91.7782 137.618 92.2646 136.879 92.6295C136.139 92.9872 135.386 93.1016 134.625 92.9514C133.592 92.7654 132.795 92.1716 132.228 91.1701C131.661 90.1686 131.26 88.8666 131.016 87.2498C130.772 85.633 130.628 83.8088 130.585 81.7699C130.556 81.1046 130.291 80.5466 129.803 80.0888C128.081 78.4148 126.559 76.6263 125.253 74.7162C123.94 72.8062 123.107 70.846 122.763 68.8501C121.959 64.4648 123.66 60.6947 127.865 57.5542C127.98 57.4755 128.102 57.4182 128.224 57.3682C129.143 56.9604 130.011 57.0462 130.829 57.6329C132.027 58.4699 132.731 60.2726 132.946 63.0555C133.154 65.8312 133.226 69.4868 133.161 74.0152C133.161 74.6876 133.161 75.4102 133.161 76.1685C133.161 76.9339 133.154 77.7423 133.154 78.5936C133.169 79.3019 133.456 79.8813 134.015 80.3535C135.759 81.8057 137.582 83.122 139.484 84.3024C139.778 84.517 140.094 84.5599 140.438 84.4312C140.761 84.3453 141.012 84.1522 141.177 83.8374C141.852 82.4853 142.347 81.1547 142.655 79.8312C142.964 78.5078 142.957 77.449 142.627 76.6478C142.505 76.4117 142.297 76.147 142.017 75.8609C141.737 75.5747 141.227 75.4102 140.495 75.3601C140.122 75.3172 139.821 75.1526 139.591 74.8665C139.362 74.5803 139.268 74.2656 139.326 73.9293C139.369 73.5573 139.534 73.2569 139.821 73.0279C140.108 72.799 140.424 72.706 140.761 72.7632C141.694 72.7776 142.548 73.0422 143.33 73.5716C144.112 74.101 144.679 74.7949 145.038 75.6606C145.547 76.8552 145.634 78.3003 145.282 79.9886C144.93 81.6769 144.349 83.3509 143.531 84.9963C143.344 85.3469 143.323 85.726 143.474 86.1338C143.61 86.5058 143.861 86.7919 144.213 86.9779C144.995 87.3642 145.791 87.6933 146.602 87.958C147.234 88.1154 147.557 88.5089 147.571 89.1456C147.593 89.7751 147.306 90.2043 146.71 90.4189ZM138.271 86.6632C137.611 86.2339 136.943 85.7832 136.254 85.3326C135.573 84.8747 134.898 84.3811 134.238 83.8446C134.044 83.7015 133.843 83.6872 133.635 83.8016C133.427 83.9161 133.334 84.0878 133.348 84.331C133.456 85.9621 133.642 87.3571 133.908 88.516C134.18 89.6749 134.575 90.2973 135.106 90.3903C135.343 90.4476 135.745 90.2973 136.326 89.9396C136.907 89.5819 137.603 88.9166 138.414 87.9437C138.73 87.6504 138.852 87.4 138.78 87.1997C138.709 86.9994 138.536 86.8206 138.264 86.6703L138.271 86.6632ZM125.311 68.3922C126.071 71.4112 127.55 74.0438 129.731 76.2901C129.975 76.5548 130.169 76.6049 130.32 76.4475C130.47 76.2829 130.549 76.0969 130.542 75.8895C130.556 75.2456 130.556 74.6232 130.549 74.0223C130.585 73.0494 130.607 71.9549 130.635 70.7172C130.657 69.4868 130.664 68.2277 130.657 66.9543C130.65 65.6809 130.599 64.5006 130.52 63.4132C130.442 62.3258 130.298 61.4459 130.104 60.7734C129.911 60.1009 129.652 59.7719 129.336 59.779C128.769 59.779 128.21 60.058 127.679 60.6303C127.141 61.2026 126.674 61.9323 126.279 62.8266C125.877 63.7208 125.59 64.6579 125.404 65.6523C125.217 66.6395 125.196 67.5552 125.325 68.3922H125.311Z" fill="#2B2B29"/>
</g>
<defs>
<clipPath id="clip0_11_24">
<rect width="306" height="198" fill="white"/>
</clipPath>
</defs>
</svg>
